<svg width="480" height="394" viewBox="0 0 480 394" fill="none" xmlns="http://www.w3.org/2000/svg">
    <g clip-path="url(#clip0_24_143)">
    <path d="M383.398 40.9973C382.359 44.8391 383.554 50.8883 384.004 54.4745C384.485 58.3086 377.826 61.7399 374.016 61.9567C374.11 60.6876 373.753 59.4262 373.007 58.3938C372.998 59.6215 372.745 60.8352 372.262 61.9645H340.468C336.463 54.4436 333.057 44.1651 336.735 33.5383C336.922 31.404 337.735 29.3722 339.075 27.698C340.414 26.0237 342.219 24.7815 344.263 24.1274L361.599 18.5894C368.436 18.5894 376.825 19.5575 380.605 24.6386C382.277 26.9779 383.398 29.665 383.882 32.4981C384.365 35.3312 384.2 38.2369 383.398 40.9973Z" fill="#2F2E41"/>
    <path d="M413.84 373.344C414.407 373.364 414.966 373.211 415.442 372.903C415.919 372.596 416.289 372.15 416.503 371.626C416.716 371.102 416.763 370.524 416.638 369.972C416.512 369.421 416.219 368.921 415.799 368.54C415.726 368.264 415.675 368.066 415.602 367.79C416.131 366.411 417.061 365.22 418.272 364.371C419.484 363.522 420.921 363.054 422.401 363.026C423.881 362.998 425.335 363.412 426.578 364.214C427.821 365.017 428.795 366.171 429.376 367.53C432.727 375.156 437.044 383.043 435.015 391.497C448.669 361.887 443.58 325.266 422.746 300.254C417.023 297.178 412.356 291.661 411.094 285.216C413.92 286.142 417.411 283.822 415.264 280.88C414.335 279.757 413.398 278.643 412.469 277.519C423.062 266.042 435.983 283.799 424.35 299.264C428.25 304.049 431.637 309.228 434.457 314.717C433.762 308.867 434.469 302.936 436.518 297.412C438.6 292.262 442.552 287.904 446.026 283.436C450.25 277.992 459.074 280.401 459.714 287.253C455.781 288.585 455.323 294.278 459.844 295.014C458.783 307.781 450.545 319.584 439.099 325.287C443.459 337.14 445.238 349.784 444.317 362.377C446.207 347.652 461.989 343.933 472.988 337.983C473.687 337.526 474.504 337.282 475.34 337.281C476.176 337.279 476.994 337.521 477.695 337.976C478.396 338.431 478.949 339.079 479.286 339.843C479.624 340.606 479.732 341.451 479.596 342.274C478.077 342.908 476.624 343.69 475.259 344.611C474.619 345.049 474.131 345.673 473.861 346.399C473.592 347.125 473.553 347.916 473.752 348.664C473.95 349.413 474.376 350.081 474.97 350.579C475.564 351.076 476.298 351.378 477.07 351.443C471.63 365.261 457.311 374.641 442.514 374.729C441.151 380.91 439.148 386.933 436.538 392.7L414.577 392.909C414.496 392.666 414.423 392.415 414.35 392.172C416.384 392.28 418.423 392.14 420.423 391.753C414.984 385.449 410.794 382.246 413.839 373.344L413.84 373.344Z" fill="#F2F2F2"/>
    <path d="M368.516 377.752H359.95L355.874 344.776H368.516V377.752Z" fill="#FFB6B6"/>
    <path d="M373.037 392.564H366.894L365.798 386.776L362.989 392.564H346.697C345.916 392.565 345.156 392.315 344.527 391.854C343.898 391.392 343.433 390.741 343.201 389.997C342.968 389.253 342.98 388.454 343.235 387.717C343.49 386.98 343.974 386.344 344.616 385.901L357.627 376.933V371.081L371.311 371.896L373.037 392.564Z" fill="#2F2E41"/>
    <path d="M381.962 318.026L375.947 324.114L349.558 303.86L358.434 294.875L381.962 318.026Z" fill="#FFB6B6"/>
    <path d="M395.704 325.212L391.391 329.578L386.492 326.294L388.65 332.353L377.212 343.933C376.664 344.488 375.952 344.854 375.181 344.976C374.409 345.099 373.619 344.973 372.925 344.616C372.231 344.258 371.669 343.689 371.323 342.991C370.976 342.292 370.861 341.502 370.997 340.734L373.732 325.19L369.557 321.082L379.746 311.928L395.704 325.212Z" fill="#2F2E41"/>
    <path d="M313.441 139.627L339.351 98.4835C340.443 96.7371 340.804 94.632 340.355 92.6225C339.907 90.613 338.684 88.8602 336.952 87.7423C336.056 87.164 335.051 86.7739 333.999 86.5958C332.947 86.4177 331.869 86.4553 330.832 86.7064C329.795 86.9574 328.82 87.4166 327.967 88.0561C327.113 88.6955 326.399 89.5016 325.868 90.4255L300.268 133.987L283.594 159.802C282.206 159.56 280.778 159.751 279.503 160.347C278.228 160.944 277.168 161.918 276.467 163.136C275.765 164.355 275.457 165.76 275.584 167.16C275.71 168.56 276.265 169.887 277.174 170.961C278.082 172.035 279.3 172.803 280.662 173.162C282.023 173.522 283.462 173.454 284.784 172.968C286.105 172.482 287.245 171.602 288.048 170.448C288.851 169.293 289.278 167.92 289.272 166.514L313.441 139.627Z" fill="#FFB6B6"/>
    <path d="M337.859 109.244L340.043 108.832C339.749 108.297 339.626 107.685 339.691 107.078C339.756 106.471 340.006 105.899 340.407 105.438C340.808 104.977 341.34 104.65 341.933 104.5C342.526 104.351 343.15 104.386 343.722 104.601C341.09 101.861 342.369 97.3503 344.062 93.9514C345.286 91.4947 346.661 89.0673 347.26 86.3896C348.169 82.3246 346.997 77.4046 341.565 76.4313C339.345 76.0846 337.073 76.5437 335.163 77.7253C331.749 79.7386 330.981 78.8621 328.827 82.1029L327.6 84.3798C326.023 86.8448 324.142 89.1016 322 91.097C320.468 92.6195 319.234 94.4132 318.359 96.3865C318.245 96.6307 318.075 96.8452 317.863 97.0131C317.023 97.6614 315.881 97.6936 314.829 97.8318C313.502 98.0059 311.984 98.5668 312.018 100.21C312.037 100.602 312.137 100.987 312.313 101.339C312.488 101.691 312.734 102.003 313.036 102.256C318.639 107.15 325.196 110.835 332.294 113.078C333.871 113.576 335.643 113.987 337.126 113.258C338.61 112.528 339.246 110.142 337.859 109.244Z" fill="#6699CC"/>
    <path d="M370.733 187.443L320.291 186.668L318.739 175.05L323.395 148.715H362.973L370.733 187.443Z" fill="#FFB6B6"/>
    <path d="M262.864 218.425H66.5256C61.7934 218.419 57.2565 216.541 53.9103 213.201C50.5642 209.861 48.682 205.333 48.6766 200.61V88.2994C48.682 83.5763 50.5643 79.0481 53.9104 75.7084C57.2566 72.3686 61.7934 70.49 66.5256 70.4846H262.864C267.596 70.49 272.133 72.3686 275.479 75.7084C278.825 79.0481 280.707 83.5763 280.713 88.2994V200.61C280.707 205.333 278.825 209.861 275.479 213.201C272.133 216.541 267.596 218.419 262.864 218.425Z" fill="white"/>
    <path d="M262.864 218.425H66.5256C61.7934 218.419 57.2565 216.541 53.9103 213.201C50.5642 209.861 48.682 205.333 48.6766 200.61V88.2994C48.682 83.5763 50.5643 79.0481 53.9104 75.7084C57.2566 72.3686 61.7934 70.49 66.5256 70.4846H262.864C267.596 70.49 272.133 72.3686 275.479 75.7084C278.825 79.0481 280.707 83.5763 280.713 88.2994V200.61C280.707 205.333 278.825 209.861 275.479 213.201C272.133 216.541 267.596 218.419 262.864 218.425ZM66.5256 72.0337C62.2049 72.0386 58.0625 73.7538 55.0073 76.8032C51.9521 79.8525 50.2336 83.987 50.2287 88.2994V200.61C50.2336 204.922 51.9522 209.057 55.0074 212.106C58.0626 215.155 62.2049 216.871 66.5256 216.876H262.864C267.185 216.871 271.327 215.155 274.382 212.106C277.437 209.057 279.156 204.922 279.161 200.61V88.2994C279.156 83.987 277.437 79.8525 274.382 76.8032C271.327 73.7538 267.185 72.0386 262.864 72.0337H66.5256Z" fill="#E6E6E6"/>
    <path d="M279.161 152.076H49.452C49.2462 152.076 49.0488 151.994 48.9032 151.849C48.7577 151.704 48.676 151.507 48.676 151.301C48.676 151.096 48.7577 150.899 48.9032 150.753C49.0488 150.608 49.2462 150.527 49.452 150.527H279.161C279.367 150.527 279.565 150.608 279.71 150.753C279.856 150.899 279.937 151.096 279.937 151.301C279.937 151.507 279.856 151.704 279.71 151.849C279.565 151.994 279.367 152.076 279.161 152.076Z" fill="#E6E6E6"/>
    <path d="M262.088 36.4042C265.945 36.4042 269.072 33.2831 269.072 29.4332C269.072 25.5832 265.945 22.4622 262.088 22.4622C258.23 22.4622 255.103 25.5832 255.103 29.4332C255.103 33.2831 258.23 36.4042 262.088 36.4042Z" fill="#F2F2F2"/>
    <path d="M6.98437 147.398C10.8417 147.398 13.9687 144.277 13.9687 140.427C13.9687 136.577 10.8417 133.456 6.98437 133.456C3.12701 133.456 0 136.577 0 140.427C0 144.277 3.12701 147.398 6.98437 147.398Z" fill="#F2F2F2"/>
    <path d="M150.552 266.68C154.409 266.68 157.536 263.559 157.536 259.709C157.536 255.859 154.409 252.738 150.552 252.738C146.695 252.738 143.568 255.859 143.568 259.709C143.568 263.559 146.695 266.68 150.552 266.68Z" fill="#F2F2F2"/>
    <path d="M108.371 186.126H84.1239C83.9181 186.126 83.7207 186.044 83.5752 185.899C83.4296 185.754 83.3479 185.557 83.3479 185.351C83.3479 185.146 83.4296 184.949 83.5752 184.804C83.7207 184.658 83.9181 184.577 84.1239 184.577H108.371C108.576 184.577 108.774 184.658 108.919 184.804C109.065 184.949 109.147 185.146 109.147 185.351C109.147 185.557 109.065 185.754 108.919 185.899C108.774 186.044 108.576 186.126 108.371 186.126Z" fill="#CCCCCC"/>
    <path d="M108.371 198.519H84.1239C83.9181 198.519 83.7207 198.437 83.5752 198.292C83.4296 198.146 83.3479 197.949 83.3479 197.744C83.3479 197.539 83.4296 197.342 83.5752 197.196C83.7207 197.051 83.9181 196.969 84.1239 196.969H108.371C108.576 196.969 108.774 197.051 108.919 197.196C109.065 197.342 109.147 197.539 109.147 197.744C109.147 197.949 109.065 198.146 108.919 198.292C108.774 198.437 108.576 198.519 108.371 198.519Z" fill="#CCCCCC"/>
    <path d="M241.074 186.126H216.827C216.621 186.126 216.424 186.044 216.278 185.899C216.133 185.754 216.051 185.557 216.051 185.351C216.051 185.146 216.133 184.949 216.278 184.804C216.424 184.658 216.621 184.577 216.827 184.577H241.074C241.279 184.577 241.477 184.658 241.622 184.804C241.768 184.949 241.85 185.146 241.85 185.351C241.85 185.557 241.768 185.754 241.622 185.899C241.477 186.044 241.279 186.126 241.074 186.126Z" fill="#CCCCCC"/>
    <path d="M241.074 198.519H216.827C216.621 198.519 216.424 198.437 216.278 198.292C216.133 198.146 216.051 197.949 216.051 197.744C216.051 197.539 216.133 197.342 216.278 197.196C216.424 197.051 216.621 196.969 216.827 196.969H241.074C241.279 196.969 241.477 197.051 241.622 197.196C241.768 197.342 241.85 197.539 241.85 197.744C241.85 197.949 241.768 198.146 241.622 198.292C241.477 198.437 241.279 198.519 241.074 198.519Z" fill="#CCCCCC"/>
    <path d="M196.839 186.126H172.593C172.387 186.126 172.189 186.044 172.044 185.899C171.898 185.754 171.817 185.557 171.817 185.351C171.817 185.146 171.898 184.949 172.044 184.804C172.189 184.658 172.387 184.577 172.593 184.577H196.839C197.045 184.577 197.243 184.658 197.388 184.804C197.534 184.949 197.615 185.146 197.615 185.351C197.615 185.557 197.534 185.754 197.388 185.899C197.243 186.044 197.045 186.126 196.839 186.126Z" fill="#CCCCCC"/>
    <path d="M196.839 198.519H172.593C172.387 198.519 172.189 198.437 172.044 198.292C171.898 198.146 171.817 197.949 171.817 197.744C171.817 197.539 171.898 197.342 172.044 197.196C172.189 197.051 172.387 196.969 172.593 196.969H196.839C197.045 196.969 197.243 197.051 197.388 197.196C197.534 197.342 197.615 197.539 197.615 197.744C197.615 197.949 197.534 198.146 197.388 198.292C197.243 198.437 197.045 198.519 196.839 198.519Z" fill="#CCCCCC"/>
    <path d="M152.605 186.126H128.358C128.152 186.126 127.955 186.044 127.809 185.899C127.664 185.754 127.582 185.557 127.582 185.351C127.582 185.146 127.664 184.949 127.809 184.804C127.955 184.658 128.152 184.577 128.358 184.577H152.605C152.811 184.577 153.008 184.658 153.154 184.804C153.299 184.949 153.381 185.146 153.381 185.351C153.381 185.557 153.299 185.754 153.154 185.899C153.008 186.044 152.811 186.126 152.605 186.126Z" fill="#CCCCCC"/>
    <path d="M152.605 198.519H128.358C128.152 198.519 127.955 198.437 127.809 198.292C127.664 198.146 127.582 197.949 127.582 197.744C127.582 197.539 127.664 197.342 127.809 197.196C127.955 197.051 128.152 196.969 128.358 196.969H152.605C152.811 196.969 153.008 197.051 153.154 197.196C153.299 197.342 153.381 197.539 153.381 197.744C153.381 197.949 153.299 198.146 153.154 198.292C153.008 198.437 152.811 198.519 152.605 198.519Z" fill="#CCCCCC"/>
    <path d="M318.739 174.275L317.187 195.188L287.904 247.542C286.498 249.873 285.881 252.594 286.145 255.302C286.409 258.01 287.539 260.562 289.369 262.579L335.289 304.108C335.289 304.108 344.316 304.404 343.556 308.662C342.796 312.921 347.621 312.719 347.621 312.719L353.05 316.634L355.989 294.331C346.116 272.329 331.476 265.617 318.739 255.468C318.739 255.468 324.11 253.874 322.976 252.028C321.843 250.182 325.402 250.059 325.402 250.059C325.402 250.059 327.763 249.741 327.907 248.025C328.051 246.309 330.341 246.049 330.341 246.049L343.188 233.141L376.942 231.592C376.942 231.592 391.225 195.877 367.629 172.726L318.739 174.275Z" fill="#2F2E41"/>
    <path d="M343.264 223.442L354.436 356.296L370.892 355.301L376.942 231.592L343.264 223.442Z" fill="#2F2E41"/>
    <path d="M344.066 64.9819L362.903 64.0134L371.653 77.812C371.653 77.812 388.115 80.559 386.974 99.9205C385.832 119.282 366.944 136.272 366.944 136.272L367.751 146.354L366.349 150.353L366.529 152.599L368.442 154.977L368.639 157.437L366.944 161.328L367.629 166.53C367.629 166.53 350.586 169.906 341.647 163.183C332.707 156.46 319.515 160.333 319.515 160.333L319.018 153.925L321.603 150.465L320.159 145.952L322.33 141.612L323.462 127.825C323.462 127.825 311.079 109.256 325.294 95.271L331 85.5902L337.384 77.8164L344.066 64.9819Z" fill="#6699CC"/>
    <path d="M390.257 148.951L388.871 100.375C388.806 98.317 387.933 96.3671 386.441 94.946C384.948 93.5248 382.956 92.7464 380.893 92.7785C379.826 92.7952 378.774 93.0286 377.8 93.4644C376.827 93.9003 375.952 94.5295 375.23 95.3137C374.508 96.0979 373.953 97.0207 373.6 98.0258C373.247 99.0308 373.103 100.097 373.176 101.16L376.166 151.574L376.689 182.284C375.401 182.853 374.32 183.804 373.593 185.007C372.865 186.211 372.527 187.608 372.623 189.011C372.719 190.413 373.245 191.752 374.13 192.845C375.015 193.938 376.216 194.733 377.569 195.121C378.923 195.51 380.363 195.473 381.695 195.016C383.027 194.559 384.185 193.704 385.013 192.566C385.84 191.429 386.297 190.066 386.322 188.66C386.346 187.255 385.936 185.876 385.148 184.712L390.257 148.951Z" fill="#FFB6B6"/>
    <path d="M393.626 110.146C393.982 109.785 394.209 109.317 394.273 108.815C394.337 108.313 394.234 107.803 393.98 107.365C393.677 106.818 393.552 106.19 393.623 105.569C393.638 105.449 393.662 105.331 393.692 105.214C393.895 104.514 393.925 103.775 393.781 103.061C393.636 102.347 393.321 101.679 392.862 101.112C391.325 99.2697 390.583 96.4802 390.262 93.9935C389.91 91.2725 389.701 88.4915 388.707 85.9335C387.274 82.2436 383.848 78.9551 379.172 80.529C377.193 81.2291 375.517 82.5886 374.425 84.3782C372.094 88.0897 372.068 92.5772 372.086 96.8705L371.247 95.174C371.347 99.8629 370.498 104.524 368.75 108.877C369.792 108.675 370.529 110.073 370.192 111.078C369.855 112.083 368.924 112.743 368.126 113.442C367.12 114.323 366.171 115.632 367.115 116.979C367.35 117.294 367.647 117.558 367.989 117.754C368.331 117.949 368.71 118.072 369.101 118.114C376.485 119.072 383.987 118.496 391.137 116.421C392.725 115.96 394.427 115.319 395.253 113.889C396.079 112.459 395.279 110.123 393.626 110.146Z" fill="#6699CC"/>
    <path d="M354.437 61.1899C364.294 61.1899 372.286 53.2139 372.286 43.3751C372.286 33.5363 364.294 25.5603 354.437 25.5603C344.579 25.5603 336.588 33.5363 336.588 43.3751C336.588 53.2139 344.579 61.1899 354.437 61.1899Z" fill="#FFB6B6"/>
    <path d="M169.421 41.5455C180.916 41.5455 190.234 32.2452 190.234 20.7727C190.234 9.30027 180.916 0 169.421 0C157.927 0 148.609 9.30027 148.609 20.7727C148.609 32.2452 157.927 41.5455 169.421 41.5455Z" fill="#6699CC"/>
    <path d="M168.689 29.1055C168.41 29.1055 168.135 29.0406 167.885 28.9159C167.635 28.7911 167.418 28.6101 167.25 28.387L162.837 22.5143C162.695 22.3257 162.591 22.1109 162.532 21.8823C162.473 21.6536 162.46 21.4156 162.493 21.1819C162.526 20.9481 162.606 20.7232 162.726 20.5199C162.846 20.3167 163.006 20.1392 163.195 19.9976C163.384 19.8559 163.6 19.7529 163.829 19.6944C164.058 19.6359 164.297 19.6231 164.531 19.6567C164.765 19.6903 164.99 19.7697 165.193 19.8903C165.397 20.0109 165.574 20.1703 165.716 20.3595L168.603 24.2012L176.018 13.1001C176.283 12.7048 176.695 12.4306 177.162 12.3378C177.63 12.2449 178.115 12.341 178.511 12.6049C178.908 12.8687 179.183 13.2789 179.277 13.7452C179.371 14.2116 179.276 14.6961 179.012 15.0924L170.187 28.3057C170.027 28.5447 169.812 28.742 169.56 28.881C169.309 29.0201 169.027 29.0969 168.739 29.1049L168.689 29.1055Z" fill="white"/>
    <path d="M209.276 80.108H120.114C117.942 80.108 115.859 79.2468 114.323 77.7139C112.787 76.1809 111.924 74.1018 111.924 71.9339C111.924 69.7661 112.787 67.687 114.323 66.154C115.859 64.6211 117.942 63.7599 120.114 63.7599H209.276C210.352 63.7588 211.418 63.9695 212.412 64.3798C213.407 64.7901 214.311 65.392 215.072 66.1512C215.833 66.9103 216.437 67.8118 216.849 68.804C217.261 69.7963 217.473 70.8598 217.473 71.9339C217.473 73.0081 217.261 74.0716 216.849 75.0639C216.437 76.0561 215.833 76.9576 215.072 77.7167C214.311 78.4758 213.407 79.0778 212.412 79.4881C211.418 79.8984 210.352 80.1091 209.276 80.108Z" fill="#6699CC"/>
    <path d="M479.081 393.762L280.913 394C280.669 393.999 280.435 393.901 280.263 393.728C280.091 393.555 279.994 393.321 279.994 393.078C279.994 392.834 280.091 392.6 280.263 392.428C280.435 392.255 280.669 392.157 280.913 392.156L479.081 391.917C479.325 391.919 479.559 392.016 479.731 392.189C479.904 392.362 480 392.596 480 392.84C480 393.084 479.904 393.317 479.731 393.49C479.559 393.663 479.325 393.761 479.081 393.762Z" fill="#CACACA"/>
    <path d="M376.942 38.7277V42.6005H361.499C361.655 41.8529 361.656 41.081 361.499 40.3332C361.343 39.5855 361.034 38.878 360.591 38.2553C360.578 39.771 360.2 41.2614 359.489 42.6005C350.559 45.2361 343.064 45.1855 336.922 42.6005C336.01 42.6005 335.135 42.2389 334.491 41.5953C333.846 40.9517 333.484 40.0788 333.484 39.1686C333.484 27.2948 342.861 17.2896 354.755 17.0449C357.647 16.9838 360.521 17.4995 363.21 18.5617C365.899 19.624 368.349 21.2114 370.416 23.2309C372.482 25.2504 374.124 27.6614 375.244 30.3225C376.365 32.9836 376.942 35.8412 376.942 38.7277Z" fill="#2F2E41"/>
    <path d="M172.067 105.34H141.025C140.202 105.34 139.413 105.013 138.83 104.432C138.248 103.851 137.921 103.063 137.921 102.241C137.921 101.42 138.248 100.632 138.83 100.051C139.413 99.4695 140.202 99.1431 141.025 99.1431H172.067C172.89 99.1431 173.68 99.4695 174.262 100.051C174.844 100.632 175.171 101.42 175.171 102.241C175.171 103.063 174.844 103.851 174.262 104.432C173.68 105.013 172.89 105.34 172.067 105.34Z" fill="#CCCCCC"/>
    <path d="M179.827 171.409H148.786C147.963 171.409 147.173 171.083 146.591 170.502C146.009 169.921 145.682 169.133 145.682 168.311C145.682 167.489 146.009 166.701 146.591 166.12C147.173 165.539 147.963 165.213 148.786 165.213H179.827C180.651 165.213 181.44 165.539 182.022 166.12C182.605 166.701 182.932 167.489 182.932 168.311C182.932 169.133 182.605 169.921 182.022 170.502C181.44 171.083 180.651 171.409 179.827 171.409Z" fill="#CCCCCC"/>
    <path d="M238.807 122.38H140.249C139.426 122.38 138.637 122.053 138.054 121.472C137.472 120.891 137.145 120.103 137.145 119.282C137.145 118.46 137.472 117.672 138.054 117.091C138.637 116.51 139.426 116.183 140.249 116.183H238.807C239.63 116.183 240.419 116.51 241.002 117.091C241.584 117.672 241.911 118.46 241.911 119.282C241.911 120.103 241.584 120.891 241.002 121.472C240.419 122.053 239.63 122.38 238.807 122.38Z" fill="#CCCCCC"/>
    <path d="M104.16 131.534C115.655 131.534 124.973 122.234 124.973 110.761C124.973 99.289 115.655 89.9888 104.16 89.9888C92.666 89.9888 83.3479 99.289 83.3479 110.761C83.3479 122.234 92.666 131.534 104.16 131.534Z" fill="#E6E6E6"/>
    </g>
    <defs>
    <clipPath id="clip0_24_143">
    <rect width="480" height="394" fill="white"/>
    </clipPath>
    </defs>
    </svg>
    