<svg width="502" height="443" viewBox="0 0 502 443" fill="none" xmlns="http://www.w3.org/2000/svg">
    <g clip-path="url(#clip0_24_182)">
    <path d="M436.204 265.385H13.7518C10.3443 265.381 7.0774 264.026 4.66791 261.618C2.25842 259.21 0.903078 255.945 0.899231 252.54V14.481H449.057V252.54C449.053 255.945 447.697 259.21 445.288 261.618C442.878 264.026 439.612 265.381 436.204 265.385Z" fill="#E6E6E6"/>
    <path d="M419.392 240.797H30.5635C28.8081 240.795 27.1251 240.098 25.8839 238.857C24.6426 237.617 23.9444 235.935 23.9424 234.18V45.6842C23.9444 43.9299 24.6426 42.2479 25.8839 41.0074C27.1251 39.7669 28.8081 39.0691 30.5635 39.0671H419.392C421.148 39.0691 422.83 39.7669 424.072 41.0074C425.313 42.2479 426.011 43.9299 426.013 45.6842V234.18C426.011 235.935 425.313 237.617 424.072 238.857C422.83 240.098 421.148 240.796 419.392 240.797Z" fill="white"/>
    <path d="M449.956 23.1579H0V12.8449C0.00384914 9.43941 1.35919 6.17449 3.76868 3.76644C6.17817 1.35838 9.44503 0.00384685 12.8526 0H437.103C440.511 0.00384685 443.778 1.35838 446.187 3.76644C448.597 6.17449 449.952 9.43941 449.956 12.8449V23.1579Z" fill="#6699CC"/>
    <path d="M122.537 168.625H53.331C51.5756 168.623 49.8927 167.926 48.6514 166.685C47.4101 165.445 46.7119 163.763 46.71 162.008V116.54C46.7119 114.786 47.4101 113.104 48.6514 111.863C49.8927 110.623 51.5756 109.925 53.331 109.923H122.537C124.292 109.925 125.975 110.623 127.216 111.863C128.457 113.104 129.156 114.786 129.158 116.54V162.008C129.156 163.763 128.457 165.445 127.216 166.685C125.975 167.926 124.292 168.623 122.537 168.625Z" fill="#E6E6E6"/>
    <path d="M399.563 117.284H180.902C179.925 117.284 178.989 116.896 178.298 116.206C177.607 115.516 177.219 114.579 177.219 113.603C177.219 112.627 177.607 111.691 178.298 111.001C178.989 110.311 179.925 109.923 180.902 109.923H399.563C400.54 109.923 401.476 110.311 402.167 111.001C402.858 111.691 403.246 112.627 403.246 113.603C403.246 114.579 402.858 115.516 402.167 116.206C401.476 116.896 400.54 117.284 399.563 117.284Z" fill="#E6E6E6"/>
    <path d="M399.563 143.613H180.902C179.925 143.613 178.989 143.225 178.298 142.535C177.608 141.845 177.22 140.909 177.22 139.932C177.22 138.956 177.608 138.02 178.298 137.33C178.989 136.64 179.925 136.252 180.902 136.252H399.563C400.54 136.252 401.476 136.64 402.167 137.33C402.858 138.02 403.246 138.956 403.246 139.932C403.246 140.909 402.858 141.845 402.167 142.535C401.476 143.225 400.54 143.613 399.563 143.613Z" fill="#E6E6E6"/>
    <path d="M399.563 169.942H180.902C179.925 169.942 178.989 169.554 178.298 168.864C177.607 168.174 177.219 167.238 177.219 166.262C177.219 165.285 177.607 164.349 178.298 163.659C178.989 162.969 179.925 162.581 180.902 162.581H399.563C400.54 162.581 401.476 162.969 402.167 163.659C402.858 164.349 403.246 165.285 403.246 166.262C403.246 167.238 402.858 168.174 402.167 168.864C401.476 169.554 400.54 169.942 399.563 169.942Z" fill="#E6E6E6"/>
    <path d="M326.804 433.077H317.254L312.711 396.264H326.806L326.804 433.077Z" fill="#A0616A"/>
    <path d="M310.433 430.349H328.85V441.939H298.837C298.837 440.417 299.137 438.91 299.72 437.504C300.302 436.097 301.157 434.82 302.233 433.744C303.31 432.668 304.589 431.814 305.995 431.232C307.402 430.649 308.91 430.349 310.433 430.349Z" fill="#2F2E41"/>
    <path d="M366.53 433.077H356.98L352.438 396.264H366.532L366.53 433.077Z" fill="#A0616A"/>
    <path d="M350.159 430.349H368.576V441.939H338.563C338.563 440.417 338.863 438.91 339.446 437.504C340.029 436.097 340.883 434.82 341.96 433.744C343.036 432.668 344.315 431.814 345.722 431.232C347.128 430.649 348.636 430.349 350.159 430.349Z" fill="#2F2E41"/>
    <path d="M365.314 424.616H355.593C354.715 424.611 353.87 424.279 353.224 423.685C352.578 423.09 352.177 422.277 352.1 421.402L343.862 322.225C343.838 321.937 343.708 321.668 343.496 321.47C343.285 321.272 343.008 321.16 342.718 321.155C342.429 321.15 342.148 321.252 341.93 321.442C341.711 321.633 341.572 321.897 341.537 322.184L329.706 421.527C329.604 422.378 329.194 423.163 328.552 423.732C327.911 424.301 327.083 424.616 326.225 424.616H314.289C313.363 424.614 312.475 424.247 311.819 423.595C311.163 422.942 310.791 422.057 310.785 421.132C310.759 414.892 310.716 408.606 310.674 402.32C310.295 346.33 309.903 288.435 321.601 265.753L321.708 265.546L363.921 264.825L364.027 265.057C376.798 292.95 372.922 355.263 369.173 415.524L368.812 421.33C368.756 422.219 368.363 423.054 367.713 423.664C367.063 424.274 366.206 424.615 365.314 424.616Z" fill="#2F2E41"/>
    <path d="M345.316 190.28C355.882 190.28 364.448 181.719 364.448 171.159C364.448 160.599 355.882 152.039 345.316 152.039C334.75 152.039 326.185 160.599 326.185 171.159C326.185 181.719 334.75 190.28 345.316 190.28Z" fill="#A0616A"/>
    <path d="M319.233 269.061L319.76 247.139L315.965 230.034C315.006 225.799 315.062 221.397 316.128 217.187C317.194 212.978 319.24 209.079 322.099 205.809C324.881 202.556 328.393 200.006 332.348 198.367C336.304 196.728 340.591 196.046 344.86 196.378C345.135 196.399 345.412 196.422 345.689 196.447C349.336 196.775 352.88 197.834 356.11 199.56C359.339 201.287 362.188 203.645 364.486 206.495C366.832 209.361 368.576 212.67 369.615 216.224C370.654 219.778 370.967 223.505 370.534 227.183L365.942 267.287L319.233 269.061Z" fill="#6699CC"/>
    <path d="M302.981 308.35C303.884 307.646 304.621 306.752 305.141 305.733C305.66 304.713 305.95 303.592 305.989 302.448C306.028 301.304 305.816 300.166 305.367 299.113C304.919 298.06 304.244 297.118 303.392 296.354L314.164 270.702L299.947 273.37L291.898 297.321C290.708 298.837 290.116 300.736 290.234 302.659C290.352 304.583 291.172 306.396 292.538 307.755C293.904 309.115 295.722 309.926 297.646 310.036C299.571 310.146 301.47 309.546 302.981 308.35Z" fill="#A0616A"/>
    <path d="M384.259 311.425C383.398 310.67 382.713 309.736 382.252 308.689C381.792 307.641 381.566 306.505 381.592 305.361C381.618 304.217 381.895 303.092 382.403 302.067C382.911 301.041 383.638 300.139 384.532 299.424L375.238 273.202L389.28 276.674L395.952 301.043C397.054 302.625 397.537 304.555 397.31 306.468C397.083 308.381 396.161 310.145 394.72 311.425C393.278 312.704 391.417 313.411 389.489 313.411C387.561 313.411 385.7 312.705 384.259 311.425Z" fill="#A0616A"/>
    <path d="M304.691 295.781C304.198 295.781 303.71 295.676 303.259 295.475L295.064 291.806C294.275 291.454 293.645 290.824 293.294 290.035C292.942 289.247 292.895 288.357 293.16 287.536L306.907 244.86L312.219 212.709C312.408 211.567 312.825 210.474 313.445 209.496C314.065 208.518 314.875 207.674 315.828 207.016C316.781 206.357 317.857 205.896 318.991 205.662C320.126 205.427 321.296 205.423 322.432 205.649C323.568 205.876 324.647 206.328 325.605 206.98C326.562 207.631 327.379 208.469 328.006 209.442C328.633 210.416 329.058 211.506 329.255 212.646C329.453 213.787 329.418 214.956 329.154 216.084L321.08 250.564L308.045 293.299C307.826 294.017 307.382 294.646 306.778 295.093C306.174 295.54 305.443 295.781 304.691 295.781Z" fill="#6699CC"/>
    <path d="M382.868 295.781C382.117 295.781 381.385 295.54 380.781 295.093C380.178 294.646 379.734 294.017 379.515 293.299L366.486 250.588L358.405 216.084C358.141 214.956 358.107 213.787 358.304 212.646C358.501 211.505 358.926 210.416 359.553 209.442C360.18 208.469 360.997 207.631 361.955 206.979C362.912 206.328 363.991 205.875 365.128 205.649C366.264 205.422 367.434 205.427 368.569 205.662C369.703 205.896 370.779 206.357 371.732 207.015C372.684 207.674 373.495 208.518 374.115 209.496C374.735 210.474 375.152 211.567 375.341 212.709L380.667 244.916L394.4 287.536C394.665 288.357 394.618 289.247 394.266 290.035C393.915 290.824 393.284 291.454 392.496 291.806L384.301 295.475C383.85 295.677 383.362 295.781 382.868 295.781Z" fill="#6699CC"/>
    <path d="M345.709 150.024C340.392 147.722 333.447 150.587 331.301 155.966C329.965 159.314 330.373 163.09 331.109 166.618C331.845 170.146 332.895 173.667 332.782 177.269C332.669 180.872 331.117 184.695 327.919 186.361C326.009 187.357 323.774 187.468 321.703 188.062C319.631 188.656 317.494 190.044 317.195 192.177C316.744 195.403 320.66 197.861 320.634 201.119C320.606 204.57 316.29 206.62 315.731 210.026C315.634 211.024 315.793 212.029 316.192 212.948C316.591 213.867 317.218 214.67 318.012 215.281C319.615 216.484 321.436 217.365 323.375 217.875C338.29 222.64 354.171 223.544 369.531 220.504C372.583 219.895 375.725 219.073 378.096 217.058C380.468 215.044 381.824 211.518 380.461 208.722C378.417 204.53 371.929 204.291 369.668 200.213C368.311 197.766 368.936 194.762 369.221 191.98C369.959 184.794 371.66 176.399 369.874 169.4C368.26 163.076 364.756 154.904 359.748 150.716C356.154 147.711 349.293 149.081 344.7 150.008L345.709 150.024Z" fill="#2F2E41"/>
    <path d="M501.221 443H228.591C228.384 443 228.186 442.918 228.04 442.772C227.894 442.626 227.812 442.428 227.812 442.222C227.812 442.015 227.894 441.817 228.04 441.671C228.186 441.525 228.384 441.443 228.591 441.443H501.221C501.428 441.443 501.626 441.525 501.772 441.671C501.918 441.817 502 442.015 502 442.222C502 442.428 501.918 442.626 501.772 442.772C501.626 442.918 501.428 443 501.221 443Z" fill="#CCCCCC"/>
    <path d="M472.514 425.273C461.282 440.306 437.966 441.888 437.966 441.888C437.966 441.888 432.862 419.097 444.094 404.064C455.326 389.031 478.641 387.448 478.641 387.448C478.641 387.448 483.746 410.24 472.514 425.273Z" fill="#E6E6E6"/>
    <path d="M415.295 430.924C422.707 440.844 438.092 441.888 438.092 441.888C438.092 441.888 441.461 426.849 434.049 416.929C426.638 407.009 411.252 405.965 411.252 405.965C411.252 405.965 407.884 421.004 415.295 430.924Z" fill="#E6E6E6"/>
    </g>
    <defs>
    <clipPath id="clip0_24_182">
    <rect width="502" height="443" fill="white"/>
    </clipPath>
    </defs>
    </svg>
    