<svg width="517" height="371" viewBox="0 0 517 371" fill="none" xmlns="http://www.w3.org/2000/svg">
    <g clip-path="url(#clip0_24_78)">
    <path d="M13.6891 370.181C13.6891 370.635 14.0537 371 14.5077 371H516.181C516.635 371 517 370.635 517 370.181C517 369.728 516.635 369.363 516.181 369.363H14.5077C14.0537 369.363 13.6891 369.728 13.6891 370.181Z" fill="#3F3D58"/>
    <path d="M174.333 65.4418H13.4346C7.29855 65.4418 2.30444 60.4486 2.30444 54.3136C2.30444 48.1787 7.29855 43.1854 13.4346 43.1854H174.333C180.469 43.1854 185.463 48.1787 185.463 54.3136C185.463 60.4486 180.469 65.4418 174.333 65.4418ZM13.4346 44.561C8.05523 44.561 3.68023 48.9352 3.68023 54.3136C3.68023 59.692 8.05523 64.0663 13.4346 64.0663H174.333C179.712 64.0663 184.087 59.692 184.087 54.3136C184.087 48.9352 179.712 44.561 174.333 44.561H13.4346Z" fill="#E2E3E4"/>
    <path d="M174.333 195.672H13.4345C7.48427 195.672 2.64838 190.837 2.64838 184.888C2.64838 178.939 7.48427 174.104 13.4345 174.104H174.333C180.283 174.104 185.119 178.939 185.119 184.888C185.119 190.837 180.283 195.672 174.333 195.672Z" fill="#003366"/>
    <path d="M121.606 21.5686H10.7862C4.83589 21.5686 0 16.7336 0 10.7843C0 4.83506 4.83589 0 10.7862 0H121.606C127.556 0 132.392 4.83506 132.392 10.7843C132.392 16.7336 127.556 21.5686 121.606 21.5686Z" fill="#E2E3E4"/>
    <path d="M174.333 108.964H13.4346C7.29855 108.964 2.30444 103.971 2.30444 97.8361C2.30444 91.7011 7.29855 86.7079 13.4346 86.7079H174.333C180.469 86.7079 185.463 91.7011 185.463 97.8361C185.463 103.971 180.469 108.964 174.333 108.964ZM13.4346 88.0834C8.05523 88.0834 3.68023 92.4577 3.68023 97.8361C3.68023 103.215 8.05523 107.589 13.4346 107.589H174.333C179.712 107.589 184.087 103.215 184.087 97.8361C184.087 92.4577 179.712 88.0834 174.333 88.0834H13.4346Z" fill="#E2E3E4"/>
    <path d="M174.333 152.494H13.4346C7.29855 152.494 2.30444 147.5 2.30444 141.365C2.30444 135.23 7.29855 130.237 13.4346 130.237H174.333C180.469 130.237 185.463 135.23 185.463 141.365C185.463 147.5 180.469 152.494 174.333 152.494ZM13.4346 131.613C8.05523 131.613 3.68023 135.987 3.68023 141.365C3.68023 146.744 8.05523 151.118 13.4346 151.118H174.333C179.712 151.118 184.087 146.744 184.087 141.365C184.087 135.987 179.712 131.613 174.333 131.613H13.4346Z" fill="#E2E3E4"/>
    <path d="M7.90391 35.1935H50.0718C51.0761 35.1935 51.8947 36.0051 51.8947 37.0161C51.8947 38.0202 51.0761 38.8387 50.0718 38.8387H7.90391C6.89959 38.8387 6.08099 38.0271 6.08099 37.0161C6.08099 36.0119 6.89959 35.1935 7.90391 35.1935Z" fill="#E2E3E4"/>
    <path d="M7.90391 79.7476H50.0718C51.0761 79.7476 51.8947 80.5592 51.8947 81.5633C51.8947 82.5675 51.0761 83.386 50.0718 83.386H7.90391C6.89959 83.386 6.08099 82.5744 6.08099 81.5702C6.08099 80.5661 6.89959 79.7476 7.90391 79.7476Z" fill="#E2E3E4"/>
    <path d="M7.90391 124.309H50.0718C51.0761 124.309 51.8947 125.12 51.8947 126.131C51.8947 127.135 51.0761 127.947 50.0718 127.947H7.90391C6.89959 127.947 6.08099 127.135 6.08099 126.124C6.08099 125.12 6.89959 124.309 7.90391 124.309Z" fill="#E2E3E4"/>
    <path d="M307.543 90.9652L292.162 96.0272V73.8877H306.119L307.543 90.9652Z" fill="#9F616A"/>
    <path d="M294.068 80.0158C302.532 80.0158 309.394 73.1552 309.394 64.6922C309.394 56.2292 302.532 49.3685 294.068 49.3685C285.603 49.3685 278.741 56.2292 278.741 64.6922C278.741 73.1552 285.603 80.0158 294.068 80.0158Z" fill="#9F616A"/>
    <path d="M298.277 63.1722C295.712 63.0965 294.026 60.5036 293.029 58.1377C292.031 55.7717 291.006 53.055 288.626 52.0784C286.68 51.2805 283.247 56.6796 281.713 55.2421C280.11 53.7428 281.672 46.0466 283.371 44.6641C285.07 43.2817 287.395 43.0135 289.583 42.9103C294.921 42.6627 300.293 43.096 305.528 44.1896C308.768 44.8636 312.097 45.8815 314.436 48.2199C317.394 51.1911 318.151 55.6685 318.364 59.8571C318.584 64.1419 318.336 68.6262 316.252 72.3746C314.168 76.123 309.807 78.8879 305.624 77.9318C305.205 75.6622 305.631 73.3306 305.796 71.0197C305.954 68.7157 305.789 66.2259 304.379 64.3895C302.976 62.5532 299.963 61.8241 298.326 63.4542" fill="#2F2E43"/>
    <path d="M317.133 68.4818C318.667 67.3607 320.503 66.4185 322.388 66.6523C324.424 66.8999 326.151 68.5781 326.674 70.5658C327.197 72.5534 326.612 74.7406 325.346 76.3637C324.087 77.9869 322.209 79.0598 320.228 79.5963C319.079 79.9058 317.821 80.0364 316.727 79.5687C315.117 78.8741 314.244 76.8176 314.876 75.1807" fill="#2F2E43"/>
    <path d="M258.483 212.66C257.458 217.695 259.336 222.296 262.665 222.936C265.995 223.575 269.524 220.006 270.542 214.971C270.975 212.963 270.906 210.886 270.342 208.905L283.02 129.983L267.164 126.998L261.042 207.124C259.742 208.747 258.868 210.645 258.483 212.667V212.66Z" fill="#9F616A"/>
    <path d="M291.997 85.8688H281.176C273.527 87.0311 271.45 91.1096 269.709 98.6476C267.054 110.147 263.663 125.457 264.337 125.684C265.417 126.042 283.839 134.708 293.228 132.727L291.997 85.8688Z" fill="#E2E3E4"/>
    <path d="M302.46 337.258H288.055V357.692H302.46V337.258Z" fill="#9F616A"/>
    <path d="M274.029 370.058C272.516 370.058 271.168 370.023 270.15 369.927C266.325 369.576 262.672 366.75 260.835 365.099C260.01 364.356 259.749 363.173 260.175 362.155C260.485 361.426 261.097 360.876 261.86 360.663L271.972 357.774L288.344 346.728L288.53 347.059C288.599 347.182 290.208 350.078 290.745 352.031C290.951 352.774 290.896 353.393 290.587 353.874C290.374 354.205 290.071 354.397 289.83 354.507C290.126 354.817 291.055 355.449 293.916 355.903C298.092 356.564 298.972 352.237 299.007 352.059L299.034 351.914L299.158 351.832C301.146 350.552 302.37 349.968 302.79 350.092C303.051 350.167 303.492 350.305 304.682 362.086C304.799 362.458 305.631 365.168 305.067 367.761C304.455 370.58 292.128 369.611 289.658 369.391C289.589 369.397 280.358 370.058 274.036 370.058H274.029Z" fill="#2F2E43"/>
    <path d="M343.476 321.203L331.254 328.825L342.069 346.163L354.291 338.542L343.476 321.203Z" fill="#9F616A"/>
    <path d="M327.245 367.258C325.553 367.258 323.998 367.052 322.89 366.86C321.804 366.667 320.951 365.8 320.772 364.714C320.648 363.93 320.875 363.139 321.411 362.554L328.462 354.755L336.511 336.721L336.841 336.9C336.965 336.969 339.861 338.571 341.353 339.947C341.924 340.47 342.206 341.027 342.193 341.598C342.186 341.996 342.034 342.313 341.883 342.54C342.296 342.65 343.417 342.691 346.086 341.563C349.98 339.919 348.439 335.779 348.37 335.607L348.315 335.47L348.377 335.339C349.388 333.2 350.11 332.058 350.537 331.941C350.805 331.866 351.245 331.749 358.489 341.123C358.785 341.371 360.924 343.234 361.818 345.731C362.788 348.448 351.816 354.149 349.608 355.264C349.539 355.319 338.058 363.661 333.339 366.034C331.468 366.977 329.253 367.265 327.238 367.265L327.245 367.258Z" fill="#2F2E43"/>
    <path d="M313.067 166.38H272.736L269.076 203.891L285.091 342.492H305.679L297.445 262.441L330.842 334.713L349.14 321.907L323.062 254.436C323.062 254.436 332.376 195.658 325.057 181.016C317.738 166.38 313.067 166.38 313.067 166.38Z" fill="#2F2E43"/>
    <path d="M333.133 168.663H269.076L288.296 85.8688H316.204L333.133 168.663Z" fill="#E2E3E4"/>
    <path d="M338.898 212.66C339.923 217.695 338.045 222.296 334.715 222.936C331.386 223.575 327.857 220.006 326.839 214.971C326.405 212.963 326.474 210.886 327.038 208.905L314.36 129.983L330.216 126.998L336.339 207.124C337.639 208.747 338.512 210.645 338.898 212.667V212.66Z" fill="#9F616A"/>
    <path d="M305.383 85.8688H316.204C323.853 87.0311 325.931 91.1096 327.671 98.6476C330.326 110.147 333.718 125.457 333.044 125.684C331.964 126.042 313.542 134.708 304.152 132.727L305.383 85.8688Z" fill="#E2E3E4"/>
    </g>
    <defs>
    <clipPath id="clip0_24_78">
    <rect width="517" height="371" fill="white"/>
    </clipPath>
    </defs>
    </svg>
    