<svg width="328" height="383" viewBox="0 0 328 383" fill="none" xmlns="http://www.w3.org/2000/svg">
    <g clip-path="url(#clip0_24_50)">
    <path d="M317.399 141.164H10.3202C7.58409 141.16 4.96091 140.071 3.02616 138.134C1.09142 136.197 0.00309833 133.571 -6.10352e-05 130.832V10.3318C0.00309833 7.59257 1.09142 4.96647 3.02616 3.02957C4.96091 1.09267 7.58409 0.00313237 10.3202 -3.05176e-05H317.399C320.135 0.00313237 322.758 1.09267 324.693 3.02957C326.628 4.96647 327.716 7.59257 327.719 10.3318V130.832C327.716 133.571 326.628 136.197 324.693 138.134C322.758 140.071 320.135 141.16 317.399 141.164Z" fill="#F2F2F2"/>
    <path d="M245.781 134.574H59.0643C45.1504 134.558 31.8109 129.018 21.9723 119.169C12.1337 109.319 6.59944 95.9645 6.58374 82.0351V59.1342C6.59942 45.2048 12.1336 31.8504 21.9722 22.0007C31.8108 12.1511 45.1503 6.61059 59.0643 6.59479H268.657C282.57 6.61059 295.91 12.1511 305.749 22.0007C315.587 31.8504 321.121 45.2048 321.137 59.1342C321.114 79.1352 313.168 98.3105 299.041 112.453C284.914 126.596 265.76 134.552 245.781 134.574Z" fill="white"/>
    <path d="M197.616 41.09H74.1936C73.4877 41.09 72.8107 40.8092 72.3115 40.3095C71.8124 39.8098 71.532 39.1321 71.532 38.4254C71.532 37.7187 71.8124 37.041 72.3115 36.5413C72.8107 36.0416 73.4877 35.7608 74.1936 35.7608H197.616C198.322 35.7608 198.999 36.0416 199.498 36.5413C199.997 37.041 200.277 37.7187 200.277 38.4254C200.277 39.1321 199.997 39.8098 199.498 40.3095C198.999 40.8092 198.322 41.09 197.616 41.09Z" fill="#E6E6E6"/>
    <path d="M260.094 69.5192H74.1936C73.4877 69.5192 72.8107 69.2385 72.3115 68.7388C71.8124 68.2391 71.532 67.5613 71.532 66.8546C71.532 66.1479 71.8124 65.4702 72.3115 64.9705C72.8107 64.4708 73.4877 64.19 74.1936 64.19H260.094C260.8 64.19 261.477 64.4708 261.976 64.9705C262.475 65.4702 262.756 66.1479 262.756 66.8546C262.756 67.5613 262.475 68.2391 261.976 68.7388C261.477 69.2385 260.8 69.5192 260.094 69.5192Z" fill="#E6E6E6"/>
    <path d="M260.094 97.9484H74.1936C73.4877 97.9484 72.8107 97.6677 72.3115 97.168C71.8124 96.6683 71.532 95.9905 71.532 95.2839C71.532 94.5772 71.8124 93.8994 72.3115 93.3997C72.8107 92.9 73.4877 92.6193 74.1936 92.6193H260.094C260.8 92.6193 261.477 92.9 261.976 93.3997C262.475 93.8994 262.756 94.5772 262.756 95.2839C262.756 95.9905 262.475 96.6683 261.976 97.168C261.477 97.6677 260.8 97.9484 260.094 97.9484Z" fill="#E6E6E6"/>
    <path d="M260.094 97.9484H74.1936C73.4877 97.9484 72.8107 97.6677 72.3115 97.168C71.8124 96.6683 71.532 95.9905 71.532 95.2839C71.532 94.5772 71.8124 93.8994 72.3115 93.3997C72.8107 92.9 73.4877 92.6193 74.1936 92.6193H260.094C260.8 92.6193 261.477 92.9 261.976 93.3997C262.475 93.8994 262.756 94.5772 262.756 95.2839C262.756 95.9905 262.475 96.6683 261.976 97.168C261.477 97.6677 260.8 97.9484 260.094 97.9484Z" fill="#E6E6E6"/>
    <path d="M184.592 72.7821C184.621 73.5848 184.826 74.3711 185.192 75.0858C185.558 75.8005 186.076 76.4262 186.71 76.9188C187.344 77.4114 188.077 77.7589 188.86 77.9368C189.642 78.1148 190.454 78.1188 191.238 77.9487L201.388 94.619L205.708 85.4416L195.407 71.0183C195.034 69.7186 194.198 68.6009 193.057 67.8771C191.916 67.1533 190.55 66.8736 189.217 67.091C187.884 67.3084 186.676 68.0079 185.824 69.0568C184.972 70.1057 184.533 71.4312 184.592 72.7821Z" fill="#FFB6B6"/>
    <path d="M260.763 120.558L225.783 101.563L214.75 91.1999C214.75 91.1999 209.953 89.9142 211.719 88.3529C213.484 86.7916 208.453 85.2858 208.453 85.2858L202.53 79.7225L194.114 85.6844L196.549 89.4644C196.549 89.4644 196.382 95.7221 199.806 94.5182C203.23 93.3143 202.375 98.5043 202.375 98.5043L222.813 130.222L260.763 120.558Z" fill="#3F3D56"/>
    <path d="M157.506 102.662C176.376 102.662 191.673 87.3477 191.673 68.4567C191.673 49.5657 176.376 34.2515 157.506 34.2515C138.636 34.2515 123.339 49.5657 123.339 68.4567C123.339 87.3477 138.636 102.662 157.506 102.662Z" fill="#003366"/>
    <path d="M260.871 369.701H253.767L250.386 342.269H260.871V369.701Z" fill="#FFB6B6"/>
    <path d="M264.621 382.024H259.527L258.617 377.209L256.288 382.024H242.776C242.128 382.024 241.497 381.817 240.976 381.433C240.454 381.048 240.068 380.507 239.876 379.888C239.683 379.269 239.693 378.605 239.904 377.992C240.115 377.379 240.517 376.849 241.05 376.481L251.84 369.02V364.152L263.19 364.83L264.621 382.024Z" fill="#2F2E41"/>
    <path d="M204.052 369.701H196.948L193.567 342.269H204.052V369.701Z" fill="#FFB6B6"/>
    <path d="M207.802 382.024H202.707L201.798 377.209L199.468 382.024H185.956C185.308 382.024 184.678 381.817 184.156 381.433C183.634 381.048 183.249 380.507 183.056 379.888C182.863 379.269 182.873 378.605 183.084 377.992C183.296 377.379 183.697 376.849 184.23 376.481L195.021 369.02V364.152L206.371 364.83L207.802 382.024Z" fill="#2F2E41"/>
    <path d="M253.333 162.231H217.476V203.099H253.333V162.231Z" fill="#FFB6B6"/>
    <path d="M218.304 182.389L212.236 189.568L201.754 211.659L175.344 274.567L169.759 287.871L174.27 311.39C174.27 311.39 175 327.959 175 330.671C175 336.194 179.614 339.254 179.614 339.254L182.999 356.904L215.821 355.523C215.821 355.523 214.676 336.068 207.802 331.161C200.927 326.253 197.767 300.677 197.767 300.677L194.031 289.33L230.44 246.123L230.675 261.226L230.789 268.536C230.789 268.536 225.457 316.082 231.672 325.31C237.887 334.537 231.799 333.451 231.799 333.451L232.095 352.486L270.986 352.762L262.406 297.962C262.406 297.962 258.05 294.518 260.38 291.057C262.711 287.595 258.121 283.355 258.121 283.355L260.18 240.574C260.18 240.574 257.901 233.185 260.582 232.225C263.263 231.264 260.934 224.91 260.934 224.91L261.332 216.629L253.333 190.949L218.304 182.389Z" fill="#2F2E41"/>
    <path d="M253.885 162.231L257.747 150.634L260.505 146.768L261.608 135.723C261.608 105.901 254.963 110.867 254.963 110.867L251.127 100.378L233.474 99.8257L222.165 110.595L212.787 113.908L209.115 133.011L215.821 153.395L217.476 164.44C214.319 170.275 214.586 167.515 217.201 171.896L248.369 180.456C259.401 184.322 259.401 174.381 257.189 171.896C254.977 169.411 253.885 162.231 253.885 162.231Z" fill="#3F3D56"/>
    <path d="M240.02 96.1185C249.058 96.1185 256.385 88.7836 256.385 79.7356C256.385 70.6876 249.058 63.3527 240.02 63.3527C230.982 63.3527 223.655 70.6876 223.655 79.7356C223.655 88.7836 230.982 96.1185 240.02 96.1185Z" fill="#FFB6B6"/>
    <path d="M261.867 101.604C262.021 101.864 262.115 102.156 262.141 102.458C262.167 102.76 262.124 103.063 262.017 103.346C261.909 103.629 261.739 103.884 261.519 104.092C261.299 104.3 261.036 104.456 260.748 104.548C258.552 105.277 257.2 107.403 255.623 109.104C254.051 110.799 251.518 112.207 249.51 111.053C247.508 109.905 247.37 106.972 245.693 105.382C244.06 103.835 241.346 104.023 239.426 105.199L239.369 105.235C239.038 105.451 238.65 105.565 238.255 105.563C237.859 105.562 237.473 105.444 237.143 105.224C236.814 105.005 236.556 104.694 236.401 104.33C236.247 103.965 236.202 103.563 236.273 103.174C236.946 99.5923 237.618 96.0114 238.29 92.4309C236.524 96.6891 233.961 100.57 230.738 103.863C229.85 104.888 228.725 105.681 227.461 106.171C226.314 106.536 225.199 105.348 224.085 105.564C226.854 103.139 236.166 87.5986 234.5 77.2106C232.542 77.4315 230.583 77.6524 228.625 77.8733C228.413 76.9455 227.96 76.0901 227.312 75.3937C227.391 76.2967 227.277 77.2061 226.976 78.0611C226.159 78.155 225.337 78.2433 224.521 78.3372C223.385 78.4642 222.149 78.5747 221.172 77.9783C219.545 76.9842 219.495 74.6315 219.959 72.7759C221.316 67.3803 225.431 62.8683 230.468 60.5047C235.504 58.1465 236.994 63.3985 242.3 61.7197C252.782 58.4061 260.814 64.0723 263.644 74.5874C266.021 83.407 264.295 92.7678 261.867 101.604Z" fill="#2F2E41"/>
    <path d="M307.172 382.38H287.134L287.048 382.224C286.792 381.759 286.544 381.266 286.313 380.759C284.249 376.336 283.377 371.276 282.607 366.812L282.027 363.447C281.957 363.04 282.01 362.621 282.179 362.243C282.348 361.866 282.626 361.548 282.977 361.33C283.328 361.111 283.736 361.003 284.149 361.018C284.561 361.033 284.96 361.171 285.294 361.415C288.339 363.633 291.386 365.849 294.433 368.063C295.587 368.904 296.905 369.877 298.167 370.928C298.289 370.336 298.417 369.742 298.544 369.157C298.632 368.752 298.838 368.383 299.137 368.097C299.435 367.811 299.812 367.62 300.219 367.55C300.627 367.479 301.046 367.532 301.423 367.702C301.8 367.871 302.118 368.149 302.336 368.5L304.681 372.271C306.391 375.025 307.9 377.739 307.593 380.665C307.594 380.701 307.591 380.737 307.585 380.772C307.523 381.252 307.409 381.725 307.244 382.181L307.172 382.38Z" fill="#F0F0F0"/>
    <path d="M327.285 382.814L136.87 383C136.679 382.999 136.498 382.923 136.363 382.788C136.229 382.653 136.154 382.471 136.154 382.28C136.154 382.09 136.229 381.907 136.363 381.773C136.498 381.638 136.679 381.561 136.87 381.561L327.285 381.375C327.475 381.376 327.657 381.452 327.791 381.587C327.925 381.722 328 381.904 328 382.094C328 382.285 327.925 382.467 327.791 382.602C327.657 382.737 327.475 382.813 327.285 382.814Z" fill="#CACACA"/>
    <path d="M154.4 114.494L133.455 96.7868C132.74 96.1802 132.293 95.314 132.214 94.3784C132.136 93.4427 132.431 92.5139 133.035 91.7959L136.89 87.226C137.496 86.5092 138.361 86.0624 139.296 85.9835C140.231 85.9046 141.158 86.2001 141.875 86.8052L162.82 104.513C163.536 105.119 163.983 105.986 164.061 106.921C164.14 107.857 163.845 108.786 163.241 109.504L159.386 114.074C158.78 114.79 157.915 115.237 156.98 115.316C156.045 115.395 155.118 115.099 154.4 114.494Z" fill="#3F3D56"/>
    <path d="M134.554 92.1643C134.229 92.5513 134.07 93.0518 134.112 93.556C134.155 94.0602 134.395 94.5269 134.781 94.8538L155.726 112.561C156.112 112.887 156.612 113.047 157.116 113.004C157.62 112.962 158.086 112.721 158.412 112.335L162.267 107.765C162.593 107.378 162.752 106.877 162.71 106.373C162.667 105.869 162.427 105.402 162.041 105.075L141.096 87.3677C140.709 87.0416 140.21 86.8824 139.706 86.925C139.202 86.9675 138.736 87.2082 138.409 87.5944L134.554 92.1643Z" fill="white"/>
    <path d="M146.85 99.048C146.778 99.1498 146.682 99.2333 146.572 99.2918C146.461 99.3503 146.339 99.3823 146.214 99.3851L142.923 99.4608C142.817 99.4632 142.712 99.4447 142.613 99.4065C142.515 99.3682 142.425 99.3109 142.348 99.2378C142.272 99.1646 142.21 99.0772 142.168 98.9803C142.125 98.8835 142.102 98.7791 142.099 98.6733C142.097 98.5675 142.115 98.4622 142.154 98.3635C142.192 98.2647 142.249 98.1745 142.322 98.098C142.395 98.0214 142.483 97.96 142.579 97.9173C142.676 97.8745 142.78 97.8513 142.886 97.8488L145.039 97.7993L142.919 92.1985C142.844 91.9987 142.851 91.7772 142.938 91.5827C143.026 91.3882 143.188 91.2364 143.387 91.1608C143.586 91.0851 143.808 91.0917 144.002 91.1791C144.197 91.2666 144.349 91.4277 144.425 91.6271L146.948 98.2934C146.994 98.414 147.01 98.5438 146.995 98.6719C146.98 98.8 146.935 98.9226 146.863 99.0296L146.85 99.048Z" fill="#003366"/>
    <path d="M147.273 100.456C148.066 100.572 148.825 100.862 149.495 101.304C150.165 101.746 150.73 102.329 151.15 103.013C151.57 103.698 151.835 104.466 151.927 105.264C152.018 106.061 151.934 106.87 151.68 107.632L167.129 119.546L157.547 122.847L144.345 111.027C143.095 110.515 142.076 109.561 141.481 108.347C140.887 107.133 140.758 105.743 141.119 104.44C141.479 103.136 142.305 102.011 143.439 101.277C144.574 100.543 145.937 100.25 147.273 100.456Z" fill="#FFB6B6"/>
    <path d="M227.705 106.346L188.15 130.694C188.15 130.694 172.202 124.786 175.318 122.051C178.435 119.317 168.513 117.468 168.513 117.468L157.552 110.085L151.192 117.485C151.192 117.485 152.35 129.506 154.322 127.424C156.294 125.343 159.242 131.029 159.242 131.029C159.242 131.029 160.113 137.377 165.726 135.78C171.34 134.182 186.402 150.928 186.402 150.928L235.082 132.752L227.705 106.346Z" fill="#3F3D56"/>
    <path d="M156.305 82.1778C155.846 82.1778 155.394 82.0709 154.984 81.8655C154.574 81.6602 154.217 81.362 153.942 80.9947L146.697 71.3245C146.465 71.0138 146.295 70.6603 146.199 70.2841C146.103 69.908 146.082 69.5165 146.136 69.1321C146.191 68.7477 146.321 68.3778 146.519 68.0437C146.716 67.7095 146.978 67.4177 147.288 67.1847C147.915 66.7141 148.703 66.5121 149.478 66.623C149.862 66.678 150.232 66.8081 150.565 67.0059C150.899 67.2038 151.191 67.4655 151.423 67.7762L156.163 74.1022L168.336 55.8227C168.771 55.1701 169.446 54.7171 170.214 54.5633C170.983 54.4095 171.78 54.5675 172.432 55.0025C173.084 55.4375 173.537 56.114 173.69 56.8831C173.844 57.6521 173.686 58.4508 173.251 59.1033L158.763 80.8609C158.501 81.2544 158.148 81.5792 157.735 81.8082C157.321 82.0372 156.859 82.1636 156.387 82.1768C156.359 82.1773 156.332 82.1778 156.305 82.1778Z" fill="white"/>
    </g>
    <defs>
    <clipPath id="clip0_24_50">
    <rect width="328" height="383" fill="white"/>
    </clipPath>
    </defs>
    </svg>
    